<?xml version="1.0" encoding="utf-8"?>
<!-- Generator: Adobe Illustrator 24.0.3, SVG Export Plug-In . SVG Version: 6.00 Build 0)  -->
<svg version="1.1" id="레이어_1" xmlns="http://www.w3.org/2000/svg" xmlns:xlink="http://www.w3.org/1999/xlink" x="0px"
	 y="0px" viewBox="0 0 400 400" style="enable-background:new 0 0 400 400;" xml:space="preserve">
<style type="text/css">
	.st0{fill:#040000;}
	.st1{clip-path:url(#SVGID_2_);}
	.st2{fill:#FFFFFF;}
</style>
<circle id="타원_376" class="st0" cx="200.52" cy="199.96" r="200"/>
<g id="그룹_2303" transform="translate(-877.64 -237.75)">
	<g id="그룹_2302" transform="translate(894.64 256.75)">
		<g>
			<defs>
				<rect id="SVGID_1_" x="82.07" y="91.11" width="201.03" height="185.51"/>
			</defs>
			<clipPath id="SVGID_2_">
				<use xlink:href="#SVGID_1_"  style="overflow:visible;"/>
			</clipPath>
			<g id="그룹_2301" transform="translate(0 0)" class="st1">
				<path id="패스_1051" class="st2" d="M182.58,91.11c55.51,0,100.52,35.48,100.52,79.25s-45,79.25-100.52,79.25
					c-5.97,0-11.94-0.42-17.85-1.25c-5.8,4.06-39.32,27.62-42.48,28.07c-0.79,0.28-1.65,0.23-2.39-0.16
					c-1.1-0.65-0.91-2.35-0.91-2.35c0.34-2.26,8.7-31.11,10.24-36.43c-28.31-14.02-47.12-38.84-47.12-67.14
					C82.07,126.58,127.05,91.11,182.58,91.11z M237.25,172.31c0-6.7-5.43-12.14-12.14-12.14c-6.7,0-12.14,5.43-12.14,12.14
					c0,6.7,5.43,12.14,12.14,12.14l0,0C231.81,184.45,237.25,179.01,237.25,172.31L237.25,172.31z M194.72,172.31
					c0-6.7-5.43-12.14-12.14-12.14s-12.14,5.43-12.14,12.14c0,6.7,5.43,12.14,12.14,12.14l0,0
					C189.29,184.45,194.72,179.02,194.72,172.31z M152.2,172.31c0-6.7-5.43-12.14-12.14-12.14s-12.14,5.43-12.14,12.14
					c0,6.7,5.43,12.14,12.14,12.14l0,0C146.76,184.45,152.2,179.02,152.2,172.31z"/>
			</g>
		</g>
	</g>
</g>
</svg>
